<svg width="12" height="12" viewBox="0 0 12 12" fill="none" xmlns="http://www.w3.org/2000/svg">
<g clip-path="url(#clip0_23_24)">
<path d="M5.66769 11.6972C5.55936 11.0572 5.27386 10.368 4.81107 9.62951C4.3483 8.88122 3.68861 8.18706 2.83199 7.54705C1.98522 6.90703 1.13846 6.49843 0.291687 6.3212V5.70089C1.12861 5.50395 1.93107 5.13966 2.69907 4.60797C3.47692 4.06643 4.12676 3.41659 4.64861 2.65843C5.1803 1.88059 5.51999 1.11259 5.66769 0.354431H6.28799C6.37661 0.84674 6.55384 1.35381 6.81969 1.87566C7.08553 2.38766 7.42523 2.87997 7.83876 3.35258C8.26213 3.81536 8.73475 4.23381 9.25661 4.60797C10.0344 5.15937 10.8271 5.52366 11.6345 5.70089V6.3212C11.0929 6.42952 10.5317 6.65106 9.95076 6.98582C9.3797 7.32057 8.84801 7.71934 8.35569 8.18212C7.86336 8.63503 7.4597 9.11259 7.14461 9.61474C6.68183 10.3532 6.39632 11.0474 6.28799 11.6972H5.66769Z" fill="url(#paint0_linear_23_24)"/>
</g>
<defs>
<linearGradient id="paint0_linear_23_24" x1="5.99047" y1="0.354431" x2="5.99047" y2="14.404" gradientUnits="userSpaceOnUse">
<stop stop-color="#0F3460"/>
<stop offset="1" stop-color="#325B8C"/>
</linearGradient>
<clipPath id="clip0_23_24">
<rect width="12" height="12" fill="white"/>
</clipPath>
</defs>
</svg>
