<svg xmlns="http://www.w3.org/2000/svg" viewBox="0 0 1080 1080" width="1080" height="1080">
<path d="M 881 592 L 861 584 L 865 575 L 828 568 L 829 563 L 842 555 L 820 550 L 819 544 L 843 533 L 844 528 L 825 524 L 829 514 L 807 508 L 817 493 L 789 485 L 794 467 L 803 460 L 784 445 L 192 463 L 139 470 L 131 466 L 131 472 L 109 490 L 124 494 L 127 502 L 116 517 L 122 529 L 113 535 L 113 547 L 100 562 L 114 570 L 107 579 L 114 584 L 114 591 L 139 597 L 140 620 L 126 632 L 127 637 L 309 621 L 436 619 L 555 610 L 826 604 L 864 599 Z" fill="#000000" stroke="#000000" stroke-linejoin="round" stroke-linecap="round" stroke-width="0.5"/>
<path d="M 856 404 L 838 460 L 962 623 L 968 563 L 938 515 L 951 513 L 981 568 L 988 574 L 997 574 L 1007 566 L 1009 556 L 1004 542 L 974 495 L 963 493 L 926 502 Z" fill="#000000" stroke="#000000" stroke-linejoin="round" stroke-linecap="round" stroke-width="0.5"/>
<text x="154" y="556" font-family="Montserrat, Nunito, Arial, sans-serif" font-weight="700" font-size="106" fill="#ffffff" letter-spacing="6">venn</text>
<text x="404" y="556" font-family="Montserrat, Nunito, Arial, sans-serif" font-weight="400" font-size="106" fill="#eaeaea" letter-spacing="6">coat</text>
</svg>