<svg width="188" height="50" viewBox="0 0 188 50" fill="none" xmlns="http://www.w3.org/2000/svg">
<path d="M161.663 39.7296L157.549 38.0815L158.372 36.2275L150.76 34.7854L150.966 33.7554L153.64 32.1073L149.115 31.0773L148.909 29.8412L153.846 27.5751L154.052 26.5451L150.143 25.721L150.966 23.6609L146.44 22.4249L148.497 19.3348L142.737 17.6867L143.766 13.9785L145.617 12.5365L141.709 9.44635L19.9258 13.1545L9.02287 14.5966L7.37716 13.7725V15.0086L2.85143 18.7167L5.93715 19.5408L6.5543 21.1888L4.29144 24.279L5.52572 26.7511L3.67429 27.9871V30.4592L1 33.5494L3.88001 35.1974L2.44 37.0515L3.88001 38.0815V39.5236L9.02287 40.7597L9.22859 45.4979L6.34858 47.97L6.5543 49L43.9944 45.7039L70.1201 45.2918L94.6002 43.4378L150.349 42.2017L158.166 41.1717L161.663 39.7296Z" fill="black" stroke="black" stroke-width="0.102778" stroke-linecap="round" stroke-linejoin="round"/>
<path d="M156.52 1L152.817 12.5365L178.326 46.1159L179.56 33.7554L173.389 23.867L176.063 23.4549C176.063 23.4549 181.884 34.0393 182.235 34.7854C182.585 35.5315 182.815 36.0215 183.675 36.0215C184.534 36.0215 184.464 36.0103 185.526 36.0215C186.588 36.0326 187.088 35.5315 187.583 34.3734C188.078 33.2153 187.995 32.3133 187.995 32.3133L186.966 29.4292L180.795 19.7468L178.532 19.3348L170.92 21.1888L156.52 1Z" fill="black"/>
<path d="M156.569 1.01571C156.537 1.00524 156.504 0.994765 156.471 0.984295C155.698 3.4022 154.925 5.82008 154.152 8.23792C153.694 9.6668 153.237 11.0957 152.78 12.5245C152.777 12.5343 152.78 12.5519 152.786 12.5602C161.3 23.7453 169.81 34.9324 178.319 46.1216C178.324 46.1293 178.335 46.1264 178.336 46.1168C178.745 41.9965 179.155 37.8761 179.565 33.7558C177.506 30.4575 175.448 27.1618 173.39 23.8661C174.281 23.731 175.172 23.5935 176.063 23.4561C178.125 27.2201 180.224 30.9931 182.235 34.7854C182.412 35.1502 182.569 35.552 182.901 35.8039C183.121 35.9695 183.403 36.0224 183.675 36.0215C184.293 36.0215 184.907 36.0121 185.526 36.0216C186.537 36.1276 187.264 35.2407 187.584 34.3736C187.858 33.7242 188.025 33.0203 187.996 32.3132C187.653 31.3515 187.31 30.3901 186.968 29.4286C184.912 26.2001 182.856 22.9715 180.801 19.7426C180.042 19.6013 179.288 19.4634 178.534 19.3255C175.992 19.9417 173.454 20.5574 170.916 21.1729L170.934 21.1793C167.613 16.513 164.293 11.8457 160.974 7.17762C159.503 5.10864 158.033 3.03949 156.562 0.970159C156.534 0.990053 156.506 1.00995 156.479 1.02984C157.956 3.09386 159.434 5.15807 160.911 7.22245C164.244 11.8802 167.576 16.5388 170.907 21.1984C170.91 21.2033 170.918 21.2063 170.924 21.2048C173.461 20.5842 175.997 19.9639 178.534 19.3439C179.285 19.4808 180.039 19.6176 180.793 19.7544C182.848 22.977 184.906 26.2034 186.965 29.4302C187.308 30.391 187.651 31.3523 187.994 32.3136C188.023 33.0199 187.857 33.7238 187.583 34.3732C187.263 35.2403 186.537 36.1272 185.526 36.0214C184.907 36.012 184.293 36.0215 183.675 36.0215C183.403 36.0224 183.121 35.9695 182.901 35.8039C182.569 35.552 182.412 35.1502 182.235 34.7854C180.224 30.9931 178.126 27.2197 176.064 23.4544C175.172 23.591 174.28 23.7282 173.389 23.8654C175.444 27.1643 177.5 30.461 179.556 33.7578C179.143 37.8749 178.73 41.995 178.317 46.1149L178.334 46.1101C169.836 34.9131 161.341 23.7139 152.849 12.5128L152.855 12.5484C153.315 11.1205 153.774 9.69247 154.234 8.2645C155.013 5.8482 155.791 3.43194 156.569 1.01571ZM156.471 0.984295L156.569 1.01571L156.479 1.02984L156.562 0.970159C156.535 0.931254 156.486 0.938865 156.471 0.984295Z" fill="black"/>
<path d="M22.4129 35.1845L17.4886 23.4621H20.9966L25.0929 33.5504H23.3498L27.5986 23.4621H30.867L25.9209 35.1845H22.4129ZM37.7524 35.3589C36.416 35.3589 35.2394 35.0974 34.2226 34.5745C33.2203 34.0515 32.4432 33.3398 31.8912 32.4391C31.3392 31.524 31.0632 30.4854 31.0632 29.3233C31.0632 28.1467 31.332 27.1081 31.8694 26.2075C32.4214 25.2924 33.1695 24.5806 34.1137 24.0722C35.0579 23.5493 36.1255 23.2878 37.3166 23.2878C38.4642 23.2878 39.4955 23.5347 40.4107 24.0286C41.3403 24.508 42.0739 25.2052 42.6113 26.1204C43.1488 27.021 43.4175 28.1032 43.4175 29.3669C43.4175 29.4976 43.4103 29.6502 43.3957 29.8245C43.3812 29.9843 43.3667 30.1368 43.3522 30.282H33.8304V28.2993H41.5655L40.2581 28.8876C40.2581 28.2775 40.1347 27.7473 39.8877 27.297C39.6408 26.8467 39.2994 26.498 38.8636 26.2511C38.4279 25.9896 37.9195 25.8589 37.3384 25.8589C36.7574 25.8589 36.2417 25.9896 35.7914 26.2511C35.3556 26.498 35.0143 26.8539 34.7673 27.3188C34.5204 27.7691 34.3969 28.3065 34.3969 28.9311V29.4541C34.3969 30.0932 34.5349 30.6597 34.8109 31.1536C35.1014 31.633 35.5009 32.0034 36.0093 32.2648C36.5322 32.5118 37.1423 32.6352 37.8396 32.6352C38.4642 32.6352 39.0089 32.5408 39.4737 32.352C39.9531 32.1632 40.3889 31.8799 40.7811 31.5022L42.5895 33.4632C42.0521 34.0733 41.3766 34.5454 40.5632 34.8795C39.7497 35.1991 38.8128 35.3589 37.7524 35.3589ZM52.8055 23.2878C53.7351 23.2878 54.5631 23.4766 55.2894 23.8543C56.0302 24.2175 56.6113 24.784 57.0325 25.5539C57.4538 26.3092 57.6644 27.2824 57.6644 28.4736V35.1845H54.2653V28.9965C54.2653 28.0523 54.0547 27.3551 53.6335 26.9048C53.2267 26.4545 52.6457 26.2293 51.8903 26.2293C51.3529 26.2293 50.8663 26.3455 50.4305 26.5779C50.0092 26.7958 49.6751 27.1372 49.4282 27.602C49.1958 28.0668 49.0796 28.6624 49.0796 29.3887V35.1845H45.6805V23.4621H48.9271V26.7087L48.317 25.7282C48.7382 24.9438 49.341 24.3409 50.1254 23.9197C50.9098 23.4984 51.8032 23.2878 52.8055 23.2878ZM67.8704 23.2878C68.8001 23.2878 69.6281 23.4766 70.3544 23.8543C71.0952 24.2175 71.6762 24.784 72.0975 25.5539C72.5187 26.3092 72.7294 27.2824 72.7294 28.4736V35.1845H69.3303V28.9965C69.3303 28.0523 69.1197 27.3551 68.6984 26.9048C68.2917 26.4545 67.7107 26.2293 66.9553 26.2293C66.4179 26.2293 65.9312 26.3455 65.4955 26.5779C65.0742 26.7958 64.7401 27.1372 64.4932 27.602C64.2608 28.0668 64.1445 28.6624 64.1445 29.3887V35.1845H60.7455V23.4621H63.992V26.7087L63.3819 25.7282C63.8032 24.9438 64.406 24.3409 65.1904 23.9197C65.9748 23.4984 66.8682 23.2878 67.8704 23.2878Z" fill="white"/>
<path d="M91.8387 33.0274C90.7057 33.0274 89.6889 32.7805 88.7882 32.2866C87.9022 31.7782 87.2049 31.0882 86.6965 30.2166C86.1881 29.3305 85.9339 28.321 85.9339 27.188C85.9339 26.0404 86.1881 25.0309 86.6965 24.1593C87.2049 23.2878 87.9022 22.605 88.7882 22.1112C89.6889 21.6173 90.7057 21.3703 91.8387 21.3703C92.8119 21.3703 93.6907 21.5592 94.4751 21.9368C95.2595 22.3145 95.8769 22.881 96.3272 23.6364L95.1724 24.4208C94.7802 23.8397 94.2936 23.4112 93.7125 23.1352C93.1315 22.8592 92.4996 22.7212 91.8169 22.7212C91.0034 22.7212 90.2699 22.9101 89.6162 23.2878C88.9626 23.6509 88.4469 24.1666 88.0692 24.8348C87.6915 25.503 87.5027 26.2874 87.5027 27.188C87.5027 28.0886 87.6915 28.873 88.0692 29.5412C88.4469 30.2094 88.9626 30.7323 89.6162 31.11C90.2699 31.4731 91.0034 31.6547 91.8169 31.6547C92.4996 31.6547 93.1315 31.5167 93.7125 31.2407C94.2936 30.9647 94.7802 30.5435 95.1724 29.9769L96.3272 30.7613C95.8769 31.5022 95.2595 32.0687 94.4751 32.4609C93.6907 32.8386 92.8119 33.0274 91.8387 33.0274ZM103.838 33.0274C102.734 33.0274 101.739 32.7805 100.852 32.2866C99.9809 31.7782 99.2909 31.0882 98.7825 30.2166C98.2741 29.3305 98.0199 28.321 98.0199 27.188C98.0199 26.0404 98.2741 25.0309 98.7825 24.1593C99.2909 23.2878 99.9809 22.605 100.852 22.1112C101.724 21.6173 102.719 21.3703 103.838 21.3703C104.971 21.3703 105.973 21.6173 106.844 22.1112C107.731 22.605 108.42 23.2878 108.914 24.1593C109.423 25.0309 109.677 26.0404 109.677 27.188C109.677 28.321 109.423 29.3305 108.914 30.2166C108.42 31.0882 107.731 31.7782 106.844 32.2866C105.958 32.7805 104.956 33.0274 103.838 33.0274ZM103.838 31.6547C104.666 31.6547 105.399 31.4731 106.038 31.11C106.677 30.7323 107.179 30.2094 107.542 29.5412C107.919 28.8585 108.108 28.0741 108.108 27.188C108.108 26.2874 107.919 25.503 107.542 24.8348C107.179 24.1666 106.677 23.6509 106.038 23.2878C105.399 22.9101 104.673 22.7212 103.859 22.7212C103.046 22.7212 102.32 22.9101 101.68 23.2878C101.041 23.6509 100.533 24.1666 100.155 24.8348C99.7776 25.503 99.5887 26.2874 99.5887 27.188C99.5887 28.0741 99.7776 28.8585 100.155 29.5412C100.533 30.2094 101.041 30.7323 101.68 31.11C102.32 31.4731 103.039 31.6547 103.838 31.6547ZM119.94 32.9184V30.3909L119.875 29.9769V25.7499C119.875 24.7767 119.599 24.0286 119.047 23.5056C118.509 22.9827 117.703 22.7212 116.628 22.7212C115.887 22.7212 115.183 22.8447 114.515 23.0917C113.846 23.3386 113.28 23.6654 112.815 24.0722L112.118 22.9173C112.699 22.4235 113.396 22.0458 114.21 21.7843C115.023 21.5083 115.88 21.3703 116.781 21.3703C118.262 21.3703 119.403 21.7407 120.202 22.4816C121.015 23.2079 121.422 24.3191 121.422 25.8153V32.9184H119.94ZM115.996 33.0274C115.139 33.0274 114.391 32.8894 113.752 32.6134C113.127 32.3229 112.648 31.9307 112.314 31.4368C111.98 30.9284 111.813 30.3474 111.813 29.6937C111.813 29.0981 111.951 28.5607 112.227 28.0813C112.517 27.5874 112.982 27.1952 113.621 26.9047C114.275 26.5997 115.147 26.4471 116.236 26.4471H120.18V27.602H116.28C115.176 27.602 114.406 27.7981 113.97 28.1903C113.549 28.5825 113.338 29.0691 113.338 29.6501C113.338 30.3038 113.592 30.8267 114.101 31.2189C114.609 31.6111 115.321 31.8072 116.236 31.8072C117.108 31.8072 117.856 31.6111 118.48 31.2189C119.119 30.8122 119.584 30.2312 119.875 29.4758L120.223 30.5435C119.933 31.2988 119.424 31.9016 118.698 32.3519C117.986 32.8022 117.086 33.0274 115.996 33.0274ZM129.241 33.0274C128.166 33.0274 127.338 32.7369 126.757 32.1558C126.176 31.5748 125.885 30.7541 125.885 29.6937V18.9518H127.432V29.6065C127.432 30.2747 127.599 30.7904 127.933 31.1535C128.282 31.5167 128.776 31.6983 129.415 31.6983C130.098 31.6983 130.664 31.5022 131.114 31.11L131.659 32.2212C131.354 32.4972 130.984 32.7006 130.548 32.8313C130.127 32.962 129.691 33.0274 129.241 33.0274ZM123.837 22.7648V21.4793H130.918V22.7648H123.837Z" fill="#EAEAEA"/>
</svg>
