<svg width="26" height="26" viewBox="0 0 26 26" fill="none" xmlns="http://www.w3.org/2000/svg">
<path d="M12.28 25.344C12.0453 23.9573 11.4267 22.464 10.424 20.864C9.42133 19.2427 7.992 17.7387 6.136 16.352C4.30133 14.9653 2.46667 14.08 0.632 13.696V12.352C2.44533 11.9253 4.184 11.136 5.848 9.984C7.53333 8.81067 8.94133 7.40267 10.072 5.76C11.224 4.07467 11.96 2.41067 12.28 0.768H13.624C13.816 1.83467 14.2 2.93333 14.776 4.064C15.352 5.17333 16.088 6.24 16.984 7.264C17.9013 8.26667 18.9253 9.17333 20.056 9.984C21.7413 11.1787 23.4587 11.968 25.208 12.352V13.696C24.0347 13.9307 22.8187 14.4107 21.56 15.136C20.3227 15.8613 19.1707 16.7253 18.104 17.728C17.0373 18.7093 16.1627 19.744 15.48 20.832C14.4773 22.432 13.8587 23.936 13.624 25.344H12.28Z" fill="#2CFF05"/>
</svg>
